<?xml version="1.0" encoding="UTF-8"?>
<svg width="712px" height="447px" viewBox="0 0 712 447" version="1.1" xmlns="http://www.w3.org/2000/svg" xmlns:xlink="http://www.w3.org/1999/xlink">
    <!-- Generator: Sketch 61.2 (89653) - https://sketch.com -->
    <title>Group 23</title>
    <desc>Created with Sketch.</desc>
    <g id="Page-1" stroke="none" stroke-width="1" fill="none" fill-rule="evenodd">
        <g id="Group-23" transform="translate(0.498352, 0.326236)">
            <g id="Group-22" fill-rule="nonzero">
                <g id="s" transform="translate(485.258929, 222.500000)" fill="#FF5152">
                    <path d="M0,0 L112,0 L112,112 C77.9357095,108.984915 51.5702309,98.1440391 32.9035642,79.4773724 C14.2368975,60.8107058 3.26904281,34.3182483 0,0 Z" id="Rectangle-Copy-5" transform="translate(56.000000, 56.000000) rotate(-360.000000) translate(-56.000000, -56.000000) "></path>
                    <path d="M112,0 L224,0 L224,112 C189.935709,108.984915 163.570231,98.1440391 144.903564,79.4773724 C126.236898,60.8107058 115.269043,34.3182483 112,0 Z" id="Rectangle-Copy-6" transform="translate(168.000000, 56.000000) rotate(-180.000000) translate(-168.000000, -56.000000) "></path>
                </g>
                <g id="Group-21" transform="translate(242.815476, 0.000000)">
                    <g id="h" transform="translate(177.813988, 119.258929) scale(-1, 1) translate(-177.813988, -119.258929) translate(118.184524, 0.000000)" fill="#1C2D5D">
                        <rect id="Rectangle-Copy-14" x="0" y="0" width="118.758757" height="238.517857"></rect>
                    </g>
                    <g id="o-copy" transform="translate(0.000000, 123.086260)">
                        <circle id="Oval" fill="#1C2D5D" cx="118.721726" cy="118.721726" r="118.721726"></circle>
                        <path d="M1.526821e-14,237.443452 C65.5681988,237.443452 118.721726,184.289925 118.721726,118.721726 C118.721726,53.1535273 65.5681988,0 1.526821e-14,0 C1.526821e-14,71.9908278 1.526821e-14,118.721726 1.526821e-14,237.443452 Z" id="Oval-Copy-4" fill="#FF5152" transform="translate(59.360863, 118.721726) rotate(-180.000000) translate(-59.360863, -118.721726) "></path>
                    </g>
                </g>
                <g id="o" transform="translate(118.721726, 232.301783) rotate(-90.000000) translate(-118.721726, -232.301783) translate(0.000000, 113.580057)">
                    <circle id="Oval" fill="#1C2D5D" cx="118.721726" cy="118.721726" r="118.721726"></circle>
                    <path d="M1.526821e-14,237.443452 C65.5681988,237.443452 118.721726,184.289925 118.721726,118.721726 C118.721726,53.1535273 65.5681988,0 1.526821e-14,0 C1.526821e-14,71.9908278 1.526821e-14,118.721726 1.526821e-14,237.443452 Z" id="Oval-Copy-4" fill="#FF5152" transform="translate(59.360863, 118.721726) rotate(-180.000000) translate(-59.360863, -118.721726) "></path>
                </g>
            </g>
            <path d="M710.607777,222.418189 C710.607777,160.286155 660.239811,109.918189 598.107777,109.918189 C535.975743,109.918189 485.607777,160.286155 485.607777,222.418189 C558.749971,222.418189 646.925312,222.418189 710.607777,222.418189 Z" id="Oval" fill="#1C2D5D"></path>
            <path d="M709.501648,446 C709.501648,383.867966 659.133682,333.5 597.001648,333.5 C534.869613,333.5 484.501648,383.867966 484.501648,446 C557.643842,446 645.819183,446 709.501648,446 Z" id="Oval" fill="#1C2D5D" transform="translate(597.001648, 389.750000) rotate(-180.000000) translate(-597.001648, -389.750000) "></path>
        </g>
    </g>
</svg>